<svg xmlns="http://www.w3.org/2000/svg" width="72.803" height="73.01" viewBox="0 0 72.803 73.01">
  <g id="ia" transform="translate(1708.133 -4197.122)">
    <g id="brain-cog" transform="translate(-1709.67 4195.769)">
      <path id="Caminho_2146" data-name="Caminho 2146" d="M-1702.377,4229.478c0-.456-5.921-15.031,9.019-20.406.455-4.282,2.369-10.385,10.568-11.114,7.728,1.45,8.728,2.637,11.023,10.477,1.22-7.855,6.65-12.845,13.938-9.839,7.652,3.644,7.175,7.331,7.2,10.932,1.257,0,15.557,3.083,9.474,19.951,2.671,2.977,6.559,9.11,4.464,15.669-3.917,6.741-1.489,4.35-6.4,7.864-.366,2.783.467,1.28-.548,5.931s-4.435,9.617-12,10.164c-9.258.357-10.75-2.55-14.3-7.47-4.919-1-2.846.053-5.193,2.277s-3.1,7.653-16.4,4.556a14.845,14.845,0,0,1-8.472-14.4c-4.111-3.7-7.379-8.2-7.106-13.938S-1702.377,4229.934-1702.377,4229.478Z" transform="translate(1709.67 -4195.769)" fill="#feba0c"/>
      <path id="Caminho_2140" data-name="Caminho 2140" d="M55.423,18.167a10.773,10.773,0,1,0-20.1-5.386,10.774,10.774,0,1,0-21.538.449A14.363,14.363,0,0,0,4.2,21.382c-1.77,4.046-1.1,6.991.514,12.57" transform="translate(2.594 0)" fill="rgba(0,0,0,0)" stroke="#000" stroke-linecap="round" stroke-linejoin="round" stroke-width="1"/>
      <path id="Caminho_2141" data-name="Caminho 2141" d="M18,5.125a14.363,14.363,0,0,1,9.067,20.723" transform="translate(41.455 8.104)" fill="rgba(0,0,0,0)" stroke="#000" stroke-linecap="round" stroke-linejoin="round" stroke-width="1"/>
      <path id="Caminho_2142" data-name="Caminho 2142" d="M23.391,10.294A14.363,14.363,0,0,1,18,37.965" transform="translate(41.473 21.496)" fill="rgba(0,0,0,0)" stroke="#000" stroke-linecap="round" stroke-linejoin="round" stroke-width="1"/>
      <path id="Caminho_2143" data-name="Caminho 2143" d="M4.121,17.483a14.363,14.363,0,0,0,26.687,9.038c.646-1.117,3.2-1.117,3.849,0a14.363,14.363,0,0,0,26.687-9.035" transform="translate(5.183 40.122)" fill="rgba(0,0,0,0)" stroke="#000" stroke-linecap="round" stroke-linejoin="round" stroke-width="1"/>
      <path id="Caminho_2144" data-name="Caminho 2144" d="M10.984,10.291A14.378,14.378,0,0,0,16.37,37.973" transform="translate(0 21.488)" fill="rgba(0,0,0,0)" stroke="#000" stroke-linecap="round" stroke-linejoin="round" stroke-width="1"/>
      <path id="Caminho_2145" data-name="Caminho 2145" d="M6,5.125a10.772,10.772,0,0,0,1.436,4.937" transform="translate(10.375 8.104)" fill="rgba(0,0,0,0)" stroke="#000" stroke-linecap="round" stroke-linejoin="round" stroke-width="1"/>
    </g>
    <g id="União_5" data-name="União 5" transform="translate(-1694.597 4224.658)" fill="#0097e0">
      <path d="M 11.7765007019043 21.49960136413574 L 10.22310066223145 21.49960136413574 C 8.844760894775391 21.49960136413574 7.723400592803955 20.37824058532715 7.723400592803955 18.99990081787109 L 7.723400592803955 14.77710056304932 L 7.723400592803955 14.27710056304932 L 7.223400592803955 14.27710056304932 L 2.999700784683228 14.27710056304932 C 1.621360659599304 14.27710056304932 0.5000006556510925 13.15534114837646 0.5000006556510925 11.7765007019043 L 0.5000006556510925 10.22400093078613 C 0.5000006556510925 8.845160484313965 1.621360659599304 7.723400592803955 2.999700784683228 7.723400592803955 L 7.223400592803955 7.723400592803955 L 7.723400592803955 7.723400592803955 L 7.723400592803955 7.223400592803955 L 7.723400592803955 2.999700784683228 C 7.723400592803955 1.621360659599304 8.844760894775391 0.5000006556510925 10.22310066223145 0.5000006556510925 L 11.7765007019043 0.5000006556510925 C 13.15484046936035 0.5000006556510925 14.27620029449463 1.621360659599304 14.27620029449463 2.999700784683228 L 14.27620029449463 7.223400592803955 L 14.27620029449463 7.723400592803955 L 14.77620029449463 7.723400592803955 L 18.99990081787109 7.723400592803955 C 20.37824058532715 7.723400592803955 21.49960136413574 8.845160484313965 21.49960136413574 10.22400093078613 L 21.49960136413574 11.7765007019043 C 21.49960136413574 13.15534114837646 20.37824058532715 14.27710056304932 18.99990081787109 14.27710056304932 L 14.77620029449463 14.27710056304932 L 14.27620029449463 14.27710056304932 L 14.27620029449463 14.77710056304932 L 14.27620029449463 18.99990081787109 C 14.27620029449463 20.37824058532715 13.15484046936035 21.49960136413574 11.7765007019043 21.49960136413574 Z" stroke="none"/>
      <path d="M 11.7765007019043 20.99960136413574 C 12.87914085388184 20.99960136413574 13.77620029449463 20.10254096984863 13.77620029449463 18.99990081787109 L 13.77620029449463 13.77710056304932 L 18.99990081787109 13.77710056304932 C 20.10254096984863 13.77710056304932 20.99960136413574 12.87963104248047 20.99960136413574 11.7765007019043 L 20.99960136413574 10.22400093078613 C 20.99960136413574 9.120870590209961 20.10254096984863 8.223401069641113 18.99990081787109 8.223401069641113 L 13.77620029449463 8.223401069641113 L 13.77620029449463 2.999700784683228 C 13.77620029449463 1.897060632705688 12.87914085388184 1.000000715255737 11.7765007019043 1.000000715255737 L 10.22310066223145 1.000000715255737 C 9.120460510253906 1.000000715255737 8.223401069641113 1.897060632705688 8.223401069641113 2.999700784683228 L 8.223401069641113 8.223401069641113 L 2.999700784683228 8.223401069641113 C 1.897060632705688 8.223401069641113 1.000000715255737 9.120870590209961 1.000000715255737 10.22400093078613 L 1.000000715255737 11.7765007019043 C 1.000000715255737 12.87963104248047 1.897060632705688 13.77710056304932 2.999700784683228 13.77710056304932 L 8.223401069641113 13.77710056304932 L 8.223401069641113 18.99990081787109 C 8.223401069641113 20.10254096984863 9.120460510253906 20.99960136413574 10.22310066223145 20.99960136413574 L 11.7765007019043 20.99960136413574 M 11.7765007019043 21.99960136413574 L 10.22310066223145 21.99960136413574 C 8.566200256347656 21.99960136413574 7.223400592803955 20.65680122375488 7.223400592803955 18.99990081787109 L 7.223400592803955 14.77710056304932 L 2.999700784683228 14.77710056304932 C 1.342800736427307 14.77710056304932 6.820678777330613e-07 13.43340110778809 6.820678777330613e-07 11.7765007019043 L 6.820678777330613e-07 10.22400093078613 C 6.820678777330613e-07 8.567100524902344 1.342800736427307 7.223400592803955 2.999700784683228 7.223400592803955 L 7.223400592803955 7.223400592803955 L 7.223400592803955 2.999700784683228 C 7.223400592803955 1.342800736427307 8.566200256347656 6.820678777330613e-07 10.22310066223145 6.820678777330613e-07 L 11.7765007019043 6.820678777330613e-07 C 13.43340110778809 6.820678777330613e-07 14.77620029449463 1.342800736427307 14.77620029449463 2.999700784683228 L 14.77620029449463 7.223400592803955 L 18.99990081787109 7.223400592803955 C 20.65680122375488 7.223400592803955 21.99960136413574 8.567100524902344 21.99960136413574 10.22400093078613 L 21.99960136413574 11.7765007019043 C 21.99960136413574 13.43340110778809 20.65680122375488 14.77710056304932 18.99990081787109 14.77710056304932 L 14.77620029449463 14.77710056304932 L 14.77620029449463 18.99990081787109 C 14.77620029449463 20.65680122375488 13.43340110778809 21.99960136413574 11.7765007019043 21.99960136413574 Z" stroke="none" fill="#000"/>
    </g>
    <g id="Elipse_25" data-name="Elipse 25" transform="translate(-1667.866 4236)" fill="#e53036" stroke="#000" stroke-width="1">
      <circle cx="4.5" cy="4.5" r="4.5" stroke="none"/>
      <circle cx="4.5" cy="4.5" r="4" fill="none"/>
    </g>
    <g id="Elipse_26" data-name="Elipse 26" transform="translate(-1657.866 4227)" fill="#e53036" stroke="#000" stroke-width="1">
      <circle cx="4.5" cy="4.5" r="4.5" stroke="none"/>
      <circle cx="4.5" cy="4.5" r="4" fill="none"/>
    </g>
  </g>
</svg>
