<svg xmlns="http://www.w3.org/2000/svg" width="125.898" height="33.765" viewBox="0 0 125.898 33.765">
  <g id="logo-gameficare" transform="translate(-246.211 -1719.717)">
    <g id="Grupo_1966" data-name="Grupo 1966" transform="translate(246.211 1719.717)">
      <g id="Grupo_1965" data-name="Grupo 1965" transform="translate(0 0)">
        <g id="Grupo_1963" data-name="Grupo 1963" transform="translate(48.063 28.545)">
          <path id="Caminho_1192" data-name="Caminho 1192" d="M849.645,2081.909h.6a.8.8,0,0,0,.813.784.773.773,0,0,0,.76-.784c0-.5-.3-.677-.813-.945a1.753,1.753,0,0,1-1.2-1.585,1.284,1.284,0,0,1,1.273-1.283,1.27,1.27,0,0,1,.9.392,1.186,1.186,0,0,1,.354.891h-.619a.649.649,0,0,0-.194-.463.573.573,0,0,0-.442-.2.63.63,0,0,0-.637.659c0,.552.3.748.849,1.015.513.285,1.149.624,1.149,1.515a1.4,1.4,0,1,1-2.793,0Z" transform="translate(-849.645 -2078.096)" fill="#fefff0"/>
          <path id="Caminho_1193" data-name="Caminho 1193" d="M908.4,2080.509h-1.538v4.312h-.636v-4.312h-1.538v-.624H908.4Z" transform="translate(-900.308 -2079.743)" fill="#fefff0"/>
          <path id="Caminho_1194" data-name="Caminho 1194" d="M976.831,2083.306v-3.421h.636v3.421a.972.972,0,1,0,1.945,0v-3.421h.636v3.421a1.609,1.609,0,1,1-3.218,0Z" transform="translate(-966.701 -2079.743)" fill="#fefff0"/>
          <path id="Caminho_1195" data-name="Caminho 1195" d="M1054.376,2082.379a2.439,2.439,0,0,1-2.493,2.441h-1.361v-4.935h1.361A2.452,2.452,0,0,1,1054.376,2082.379Zm-.636,0a1.83,1.83,0,0,0-1.856-1.871h-.725v3.688h.725A1.818,1.818,0,0,0,1053.74,2082.379Z" transform="translate(-1034.522 -2079.743)" fill="#fefff0"/>
          <path id="Caminho_1196" data-name="Caminho 1196" d="M1127.766,2079.885h.636v4.935h-.636Z" transform="translate(-1105.614 -2079.743)" fill="#fefff0"/>
          <path id="Caminho_1197" data-name="Caminho 1197" d="M1159.061,2080.9a2.564,2.564,0,1,1,2.563,2.583A2.587,2.587,0,0,1,1159.061,2080.9Zm4.491,0a1.936,1.936,0,1,0-3.872,0,1.936,1.936,0,1,0,3.872,0Z" transform="translate(-1134.416 -2078.301)" fill="#fefff0"/>
        </g>
        <g id="Grupo_1964" data-name="Grupo 1964">
          <path id="Caminho_1198" data-name="Caminho 1198" d="M286.071,1742.609l-.95-18.616-3.3-.031-3.371,7.664-.519.021-3.4-7.771-2.56.011v-.021l-25.611.319-.153,0,.16,21.993,9.469.49,1.669-11.072-6.866-.458.044,3.165,2.809.079v4.724h-3.615l-.349-14.975,21.989-.271-.456,20.79,3.964-.933.2-10.84,2.307,8.677a.763.763,0,0,0,.722.515h0a.763.763,0,0,0,.713-.492l2.512-8.572.762,8.843.012.135,14.816.8,2.035-3.123Z" transform="translate(-246.211 -1723.535)" fill="#fefff0"/>
          <path id="Caminho_1199" data-name="Caminho 1199" d="M764.058,1737.315v-2.923c.52.013-.528.054,1.192.08,4.2.063,4.3-.022,4.375-.084s.19-.158.144-1.943c-.022-.848-.07-1.684-.071-1.693l-.008-.137-5.849-.494.24-2.815,8.538-.107-1.352-3.707-10.671.327.321,16.826,0,.144,11.77.614,2.108-3.084Z" transform="translate(-719.626 -1723.191)" fill="#fefff0"/>
          <path id="Caminho_1200" data-name="Caminho 1200" d="M392.69,1816.27l-5.009-.968-4.551,17.5,3.933-.125,1.888-6.512,2.042-.034,1.543,6.712,4.12-.25Zm-2.612,8.491a8.132,8.132,0,0,0-.535-1.761,1.67,1.67,0,0,0-.224-.441,6.04,6.04,0,0,0-2.607-.863l-.012,0a5.373,5.373,0,0,0,2.507-.587,1.668,1.668,0,0,0,.237-.434,8.7,8.7,0,0,0,.579-1.815h.005a8.3,8.3,0,0,0,.545,1.778,1.669,1.669,0,0,0,.237.434,5.219,5.219,0,0,0,2.458.658l0,0a5.714,5.714,0,0,0-2.525.878,1.669,1.669,0,0,0-.224.44,7.475,7.475,0,0,0-.428,1.711" transform="translate(-372.224 -1807.689)" fill="#fefff0"/>
          <path id="Caminho_1201" data-name="Caminho 1201" d="M1662.756,1739.605l-2.108,3.084-.086,0-11.684-.609,0-.143-.321-16.826,10.671-.327,1.352,3.707-8.538.107-.24,2.815,6.365.494.008.137c0,.008.049.845.071,1.693.046,1.784-.064,1.876-.144,1.943s-.177.147-4.375.084a16.212,16.212,0,0,1-1.708-.08v2.923Z" transform="translate(-1536.858 -1724.377)" fill="#fefff0"/>
          <path id="Caminho_1202" data-name="Caminho 1202" d="M946.016,1719.717l18.594.676-3.92,3.8v-.015l-10.85.149-.2,3.655h5.221l-1.117,4.189-4.12.257-.483,12.7-2.715-.822,0-.089-.561-24.492" transform="translate(-890.137 -1719.717)" fill="#fefff0"/>
          <path id="Caminho_1203" data-name="Caminho 1203" d="M1079.444,1812.334l-4.315,1.269.12-13.659,4.115-1.7Z" transform="translate(-1009.106 -1791.992)" fill="#fefff0"/>
          <path id="Caminho_1204" data-name="Caminho 1204" d="M1159.345,1789.517l.041,4.715-2.445,2.568-4.6-.08-3.488-.973-1.528-10.856,3.244-5.317,4.063-3.435,3.729.851,4,3.326-3.686,3.434-3.153-2.374-3.966,3.7.062,5.226,2.672,2.2,2.273-3.275Z" transform="translate(-1075.55 -1771.644)" fill="#fefff0"/>
          <path id="Caminho_1205" data-name="Caminho 1205" d="M1323.8,1744.5l-5.441.607-4.127,18.214,4.042-.115,1.759-8.713,2.1-.032,1.765,8.9,3.379-.369Zm-4.328,6.274,3.181,1.146-3,.051.6-3.272,1.775-.025Z" transform="translate(-1229.16 -1742.527)" fill="#fefff0"/>
          <path id="Caminho_1206" data-name="Caminho 1206" d="M1484.848,1744.751l.14,0,.516-12.5,6.566,9.6.011.014,14.4,1.21,2.038-3.127-13.068-1.082-6.086-8.046,3.231-1.824,1.9-2.909-.023-.07a17.822,17.822,0,0,0-2.356-4.761c-1.365-1.672-9.68-1.474-10.033-1.465l-.153,0,.337,23.7m6.512-15.928-3.3.051.658-3.272,1.953-.025Z" transform="translate(-1383.508 -1719.773)" fill="#fefff0"/>
        </g>
      </g>
    </g>
  </g>
</svg>
