<svg xmlns="http://www.w3.org/2000/svg" width="92.496" height="66.282" viewBox="0 0 92.496 66.282">
  <g id="sem-login" transform="translate(1883.531 -4141.93)">
    <path id="Caminho_2126" data-name="Caminho 2126" d="M38.792,65.168,0,33.475,10.451,20.667l27.11,22.159L79.574,0,91.361,11.577,38.792,65.168Z" transform="translate(-1882.965 4142.5)" fill="none" stroke="#feba0c" stroke-miterlimit="10" stroke-width="0.805"/>
    <g id="Grupo_2864" data-name="Grupo 2864" transform="translate(-1868.364 4152.179)">
      <path id="Caminho_2124" data-name="Caminho 2124" d="M226.719,86.23a4.714,4.714,0,0,0-2.207.466,23.3,23.3,0,0,0-45.781,0,6.8,6.8,0,0,0-2.208-.465,5.81,5.81,0,1,0,0,11.619,5.389,5.389,0,0,0,2.673-.7,23.3,23.3,0,0,0,44.851,0,5.385,5.385,0,0,0,2.671.7,5.81,5.81,0,1,0,0-11.619Z" transform="translate(-170.714 -67.752)" fill="#ffc7de" stroke="#000" stroke-miterlimit="10" stroke-width="0.87"/>
      <path id="Caminho_2125" data-name="Caminho 2125" d="M200.672,67.755s-17.778-.7-23.123,19.4a5.3,5.3,0,0,1,2.092,1.86c.581.813,1.161.581,1.161-.348A20.311,20.311,0,0,1,185.915,77.4c.813-.7.929.465,1.394,1.51,3.021,8.018,16.035,18.823,33.232,10.458.929-.465,3.6-2.208,3.6-2.208-5.345-20.1-23.123-19.4-23.123-19.4h-.348Z" transform="translate(-169.766 -67.752)"/>
    </g>
  </g>
</svg>
