<svg xmlns="http://www.w3.org/2000/svg" width="75.553" height="94.32" viewBox="0 0 75.553 94.32">
  <g id="whitelabel" transform="translate(2097.109 -4090.925)">
    <g id="Grupo_2869" data-name="Grupo 2869" transform="translate(-2096.687 4099.839)">
      <g id="搜索" transform="translate(0)">
        <path id="Caminho_1337" data-name="Caminho 1337" d="M149.511,42.155H100.252V113.6h49.287V42.55a1.718,1.718,0,0,1-.028-.394Z" transform="translate(-99.208 -35.755)" fill="#fff" stroke="#000" stroke-miterlimit="10" stroke-width="0.844"/>
        <path id="Caminho_1338" data-name="Caminho 1338" d="M100.168,101.188a6.8,6.8,0,0,0,6.8,6.8h35.7a6.8,6.8,0,0,0,6.8-6.8v-.338H100.168ZM142.66,23h-35.7a6.775,6.775,0,0,0-6.767,6.4h49.259A6.841,6.841,0,0,0,142.66,23Z" transform="translate(-99.153 -23)" fill="#e53036" stroke="#000" stroke-miterlimit="10" stroke-width="0.844"/>
        <path id="Caminho_1339" data-name="Caminho 1339" d="M154.1,54.223H114.26v36.3H154.1Z" transform="translate(-108.536 -43.79)" fill="#0097e0" stroke="#000" stroke-linecap="round" stroke-linejoin="round" stroke-miterlimit="10" stroke-width="0.844"/>
        <path id="Caminho_1341" data-name="Caminho 1341" d="M113.752,206.453H153.96m-40.208,3.186H125.2m-.874,16.664h20.527" transform="translate(-108.198 -145.154)" fill="none" stroke="#000" stroke-miterlimit="10" stroke-width="0.844"/>
        <path id="Caminho_1342" data-name="Caminho 1342" d="M170.658,32.174a.621.621,0,1,0-.62-.621A.62.62,0,0,0,170.658,32.174Z" transform="translate(-145.675 -28.282)"/>
        <path id="Caminho_1343" data-name="Caminho 1343" d="M98.116,62.24h-.987v7.952h.987Zm0,10.433h-.987v7.951h.987Z" transform="translate(-97.129 -49.128)" fill="#dedfea" stroke="#000" stroke-linecap="round" stroke-linejoin="round" stroke-miterlimit="10" stroke-width="0.844"/>
      </g>
    </g>
    <g id="bolt" transform="translate(-2068.78 4091.425)">
      <path id="Exclusão_2" data-name="Exclusão 2" d="M23.362,52.635a5.143,5.143,0,0,1-2.6-.705L2.6,41.4A5.29,5.29,0,0,1,0,36.847V15.788a5.293,5.293,0,0,1,2.6-4.554L20.766.705a5.129,5.129,0,0,1,5.192,0L44.129,11.235a5.293,5.293,0,0,1,2.6,4.554V36.847a5.291,5.291,0,0,1-2.6,4.553L25.958,51.93A5.144,5.144,0,0,1,23.362,52.635Zm.215-36.958A10.583,10.583,0,1,0,34.013,26.26,10.522,10.522,0,0,0,23.577,15.677Z" transform="translate(0 0)" fill="#feba0c" stroke="#000" stroke-linecap="round" stroke-linejoin="round" stroke-width="1"/>
    </g>
  </g>
</svg>
