<svg xmlns="http://www.w3.org/2000/svg" width="91.438" height="64.307" viewBox="0 0 91.438 64.307">
  <g id="games" transform="translate(1726.892 -4122.9)">
    <g id="gamepad-2" transform="translate(-1728.392 4118.4)">
      <line id="Linha_5" data-name="Linha 5" x2="18.93" transform="translate(19.747 32.212)" fill="none" stroke="#000" stroke-linecap="round" stroke-linejoin="round" stroke-width="1"/>
      <line id="Linha_6" data-name="Linha 6" y2="18.93" transform="translate(29.212 22.747)" fill="none" stroke="#000" stroke-linecap="round" stroke-linejoin="round" stroke-width="1"/>
      <line id="Linha_7" data-name="Linha 7" x2="0.045" transform="translate(60.785 36.653)" fill="none" stroke="#000" stroke-linecap="round" stroke-linejoin="round" stroke-width="1"/>
      <line id="Linha_8" data-name="Linha 8" x2="0.045" transform="translate(74.35 27.609)" fill="none" stroke="#000" stroke-linecap="round" stroke-linejoin="round" stroke-width="1"/>
      <path id="Caminho_2128" data-name="Caminho 2128" d="M71.275,5H23.162A18.087,18.087,0,0,0,5.175,21.229c-.028.239-.046.461-.077.692C4.731,24.969,2,47.759,2,54.741A13.566,13.566,0,0,0,15.566,68.307c4.522,0,6.783-2.261,9.044-4.522L31,57.391a9.044,9.044,0,0,1,6.394-2.65H57.041a9.043,9.043,0,0,1,6.393,2.648l6.4,6.4c2.261,2.261,4.522,4.522,9.044,4.522A13.566,13.566,0,0,0,92.438,54.741c0-6.986-2.731-29.772-3.1-32.82-.032-.226-.05-.452-.077-.683A18.088,18.088,0,0,0,71.275,5Z" fill="#e53036" stroke="#000" stroke-linecap="round" stroke-linejoin="round" stroke-width="1"/>
    </g>
    <g id="Elipse_22" data-name="Elipse 22" transform="translate(-1673 4151)" fill="#0097e0" stroke="#000" stroke-width="1">
      <circle cx="5.5" cy="5.5" r="5.5" stroke="none"/>
      <circle cx="5.5" cy="5.5" r="5" fill="none"/>
    </g>
    <g id="Elipse_23" data-name="Elipse 23" transform="translate(-1660 4140)" fill="#0097e0" stroke="#000" stroke-width="1">
      <circle cx="5.5" cy="5.5" r="5.5" stroke="none"/>
      <circle cx="5.5" cy="5.5" r="5" fill="none"/>
    </g>
    <g id="União_4" data-name="União 4" transform="translate(-1709.5 4140.276)" fill="#feba0c">
      <path d="M 11.7765007019043 21.49960136413574 L 10.22310066223145 21.49960136413574 C 8.844760894775391 21.49960136413574 7.723400592803955 20.37824058532715 7.723400592803955 18.99990081787109 L 7.723400592803955 14.77710056304932 L 7.723400592803955 14.27710056304932 L 7.223400592803955 14.27710056304932 L 2.999700784683228 14.27710056304932 C 1.621360659599304 14.27710056304932 0.5000006556510925 13.15534114837646 0.5000006556510925 11.7765007019043 L 0.5000006556510925 10.22400093078613 C 0.5000006556510925 8.845160484313965 1.621360659599304 7.723400592803955 2.999700784683228 7.723400592803955 L 7.223400592803955 7.723400592803955 L 7.723400592803955 7.723400592803955 L 7.723400592803955 7.223400592803955 L 7.723400592803955 2.999700784683228 C 7.723400592803955 1.621360659599304 8.844760894775391 0.5000006556510925 10.22310066223145 0.5000006556510925 L 11.7765007019043 0.5000006556510925 C 13.15484046936035 0.5000006556510925 14.27620029449463 1.621360659599304 14.27620029449463 2.999700784683228 L 14.27620029449463 7.223400592803955 L 14.27620029449463 7.723400592803955 L 14.77620029449463 7.723400592803955 L 18.99990081787109 7.723400592803955 C 20.37824058532715 7.723400592803955 21.49960136413574 8.845160484313965 21.49960136413574 10.22400093078613 L 21.49960136413574 11.7765007019043 C 21.49960136413574 13.15534114837646 20.37824058532715 14.27710056304932 18.99990081787109 14.27710056304932 L 14.77620029449463 14.27710056304932 L 14.27620029449463 14.27710056304932 L 14.27620029449463 14.77710056304932 L 14.27620029449463 18.99990081787109 C 14.27620029449463 20.37824058532715 13.15484046936035 21.49960136413574 11.7765007019043 21.49960136413574 Z" stroke="none"/>
      <path d="M 11.7765007019043 20.99960136413574 C 12.87914085388184 20.99960136413574 13.77620029449463 20.10254096984863 13.77620029449463 18.99990081787109 L 13.77620029449463 13.77710056304932 L 18.99990081787109 13.77710056304932 C 20.10254096984863 13.77710056304932 20.99960136413574 12.87963104248047 20.99960136413574 11.7765007019043 L 20.99960136413574 10.22400093078613 C 20.99960136413574 9.120870590209961 20.10254096984863 8.223401069641113 18.99990081787109 8.223401069641113 L 13.77620029449463 8.223401069641113 L 13.77620029449463 2.999700784683228 C 13.77620029449463 1.897060632705688 12.87914085388184 1.000000715255737 11.7765007019043 1.000000715255737 L 10.22310066223145 1.000000715255737 C 9.120460510253906 1.000000715255737 8.223401069641113 1.897060632705688 8.223401069641113 2.999700784683228 L 8.223401069641113 8.223401069641113 L 2.999700784683228 8.223401069641113 C 1.897060632705688 8.223401069641113 1.000000715255737 9.120870590209961 1.000000715255737 10.22400093078613 L 1.000000715255737 11.7765007019043 C 1.000000715255737 12.87963104248047 1.897060632705688 13.77710056304932 2.999700784683228 13.77710056304932 L 8.223401069641113 13.77710056304932 L 8.223401069641113 18.99990081787109 C 8.223401069641113 20.10254096984863 9.120460510253906 20.99960136413574 10.22310066223145 20.99960136413574 L 11.7765007019043 20.99960136413574 M 11.7765007019043 21.99960136413574 L 10.22310066223145 21.99960136413574 C 8.566200256347656 21.99960136413574 7.223400592803955 20.65680122375488 7.223400592803955 18.99990081787109 L 7.223400592803955 14.77710056304932 L 2.999700784683228 14.77710056304932 C 1.342800736427307 14.77710056304932 6.820678777330613e-07 13.43340110778809 6.820678777330613e-07 11.7765007019043 L 6.820678777330613e-07 10.22400093078613 C 6.820678777330613e-07 8.567100524902344 1.342800736427307 7.223400592803955 2.999700784683228 7.223400592803955 L 7.223400592803955 7.223400592803955 L 7.223400592803955 2.999700784683228 C 7.223400592803955 1.342800736427307 8.566200256347656 6.820678777330613e-07 10.22310066223145 6.820678777330613e-07 L 11.7765007019043 6.820678777330613e-07 C 13.43340110778809 6.820678777330613e-07 14.77620029449463 1.342800736427307 14.77620029449463 2.999700784683228 L 14.77620029449463 7.223400592803955 L 18.99990081787109 7.223400592803955 C 20.65680122375488 7.223400592803955 21.99960136413574 8.567100524902344 21.99960136413574 10.22400093078613 L 21.99960136413574 11.7765007019043 C 21.99960136413574 13.43340110778809 20.65680122375488 14.77710056304932 18.99990081787109 14.77710056304932 L 14.77620029449463 14.77710056304932 L 14.77620029449463 18.99990081787109 C 14.77620029449463 20.65680122375488 13.43340110778809 21.99960136413574 11.7765007019043 21.99960136413574 Z" stroke="none" fill="#000"/>
    </g>
  </g>
</svg>
