<svg xmlns="http://www.w3.org/2000/svg" width="454.567" height="422.739" viewBox="0 0 454.567 422.739">
  <g id="img-tela-login" transform="translate(0.566 0.494)">
    <path id="Caminho_94" data-name="Caminho 94" d="M252.527,378.509,60,221.212l51.869-63.569L246.417,267.621,454.933,55.074l58.5,57.46-260.9,265.976Z" transform="translate(-60 3.164)" fill="none" stroke="#dedfea" stroke-miterlimit="10" stroke-width="0.805"/>
    <path id="Caminho_95" data-name="Caminho 95" d="M227.564,43.611a2.24,2.24,0,0,1-1.95,1.17c-3.25.258-5.98,2.21-8.059,6.109a22.453,22.453,0,0,0-2.21,6.24,2.372,2.372,0,0,1-4.68-.778,27.7,27.7,0,0,1,2.6-7.541c2.859-5.331,6.889-8.321,11.96-8.71a2.257,2.257,0,0,1,2.47,2.21,1.2,1.2,0,0,1-.131,1.3Z" transform="translate(32.56 -6.042)" fill="#ffc7de" stroke="#000" stroke-miterlimit="10" stroke-width="0.805"/>
    <path id="Caminho_96" data-name="Caminho 96" d="M226.174,40.073a2.06,2.06,0,0,1-.909.911c-.391.129-7.67,4.289-10.92,16.769a2.349,2.349,0,0,1-4.551-1.169c3.9-14.562,12.87-19.5,13.261-19.76a2.407,2.407,0,0,1,3.25,1.04,2.608,2.608,0,0,1-.131,2.21Z" transform="translate(31.999 -8.224)" fill="#ffc7de" stroke="#000" stroke-miterlimit="10" stroke-width="0.805"/>
    <path id="Caminho_97" data-name="Caminho 97" d="M214.493,42.916s-1.56,4.809-.131,4.809l-1.04,2.079a16.883,16.883,0,0,1,1.17-6.889Zm-.52,5.589s-.651,2.079,1.04,2.99l-.909,2.728a32.449,32.449,0,0,1-.781-4.419Z" transform="translate(34.191 -4.306)"/>
    <path id="Caminho_98" data-name="Caminho 98" d="M240.875,56.617a2.58,2.58,0,0,0-3.121,1.432l-2.339,5.329c-1.43-3.77-2.6-8.059-2.341-11.18.911-5.72,1.69-11.049,2.21-14.17a2.634,2.634,0,0,0-2.079-2.99,2.56,2.56,0,0,0-2.99,2.21c-.78,4.811-2.341,14.43-3.121,15.86-2.079,4.03-20.8,51.089-20.8,51.089l-25.349,7.279,6.5,31.46,34.448-10.14a8.023,8.023,0,0,0,5.331-5.46l15.469-67.469a2.555,2.555,0,0,0-1.819-3.25Z" transform="translate(14.309 -9.17)" fill="#ffc7de" stroke="#000" stroke-linecap="round" stroke-linejoin="round" stroke-miterlimit="10" stroke-width="0.805"/>
    <path id="Caminho_99" data-name="Caminho 99" d="M216.12,52.578l-3.77,5.069" transform="translate(33.604 1.63)" fill="none" stroke="#000" stroke-linecap="round" stroke-linejoin="round" stroke-miterlimit="10" stroke-width="0.805"/>
    <path id="Caminho_100" data-name="Caminho 100" d="M308.882,162.333l-39.521,31.458,26.52,22.49,38.479-30.289-25.479-23.659Z" transform="translate(68.632 69.064)" fill="#ffc7de" stroke="#000" stroke-miterlimit="10" stroke-width="0.805"/>
    <path id="Caminho_101" data-name="Caminho 101" d="M312.132,196.573l28.208,7.67a5.317,5.317,0,0,0,5.331-1.04l.651-.52a1.421,1.421,0,0,0,.129-1.95l-38.608-43.808a1.7,1.7,0,0,0-2.47-.131l-14.431,13,21.191,26.78Z" transform="translate(81.89 65.371)" fill="#0097e0" stroke="#000" stroke-miterlimit="10" stroke-width="0.805"/>
    <path id="Caminho_102" data-name="Caminho 102" d="M340.246,202.925l-40.689-46.149" transform="translate(87.184 65.65)" fill="none" stroke="#000" stroke-miterlimit="10" stroke-width="0.403"/>
    <path id="Caminho_103" data-name="Caminho 103" d="M234.152,59.318c-1.43,3.77,7.409,7.41,9.1,2.859s4.16-9.489,5.591-13.779a3.706,3.706,0,0,0-1.561-4.68,3.521,3.521,0,0,0-4.679,1.3l-8.45,14.3Z" transform="translate(46.904 -4.068)" fill="#ffc7de" stroke="#000" stroke-miterlimit="10" stroke-width="0.805"/>
    <path id="Caminho_104" data-name="Caminho 104" d="M234.516,56.5c-.78,3.379,7.279,5.589,8.319,1.56,1.04-4.16,2.6-8.71,3.51-12.608a3.129,3.129,0,0,0-5.849-2.212Z" transform="translate(47.19 -5.284)" fill="#ffc7de" stroke="#000" stroke-miterlimit="10" stroke-width="0.805"/>
    <path id="Caminho_105" data-name="Caminho 105" d="M254.464,53.341l-.78,21.191-11.96,35.1L216.5,121.2a8.043,8.043,0,0,1-.391-7.67l28.861-63.18a2.659,2.659,0,0,1,3.51-1.3" transform="translate(35.431 -0.693)" fill="#ffc7de"/>
    <path id="Caminho_106" data-name="Caminho 106" d="M254.464,53.341l-.78,21.191-11.96,35.1L216.5,121.2a8.043,8.043,0,0,1-.391-7.67l28.861-63.18a2.659,2.659,0,0,1,3.51-1.3" transform="translate(35.431 -0.693)" fill="none" stroke="#000" stroke-linecap="round" stroke-linejoin="round" stroke-miterlimit="10" stroke-width="0.805"/>
    <path id="Caminho_107" data-name="Caminho 107" d="M235.647,65.8l-.389-2.6a15.493,15.493,0,0,1,.78-6.89l1.56-4.16a2.513,2.513,0,0,0-1.3-3.119" transform="translate(47.619 -0.546)" fill="#ffc7de"/>
    <path id="Caminho_108" data-name="Caminho 108" d="M309.426,65.8l-.389-2.6a15.493,15.493,0,0,1,.78-6.89l1.56-4.16a2.513,2.513,0,0,0-1.3-3.119M133.408,170.192l-18.33-20.409" transform="translate(-26.16 -0.546)" fill="none" stroke="#000" stroke-linecap="round" stroke-linejoin="round" stroke-miterlimit="10" stroke-width="0.805"/>
    <path id="Caminho_109" data-name="Caminho 109" d="M125.158,111.441l-10.4,9.88s-10.4,9.88-14.691,14.82c-3.639,4.159.781,6.369,2.47,5.589,0,0-4.03,3.77-1.819,6.759a4.43,4.43,0,0,0,6.37.651,3.522,3.522,0,0,0,.52,4.94c1.95,1.819,4.549,1.04,6.5-.52,3.77-3.121,12.739-11.051,12.739-11.051s-1.429,6.37-2.21,9.88c-.909,4.94,4.551,6.759,6.761,2.6,2.079-3.9,6.24-18.2,6.24-18.2l5.98-5.069" transform="translate(-36.241 37.796)" fill="#ffc7de"/>
    <path id="Caminho_110" data-name="Caminho 110" d="M125.158,111.441l-10.4,9.88s-10.4,9.88-14.691,14.82c-3.639,4.159.781,6.369,2.47,5.589,0,0-4.03,3.77-1.819,6.759a4.43,4.43,0,0,0,6.37.651,3.522,3.522,0,0,0,.52,4.94c1.95,1.819,4.549,1.04,6.5-.52,3.77-3.121,12.739-11.051,12.739-11.051s-1.429,6.37-2.21,9.88c-.909,4.94,4.551,6.759,6.761,2.6,2.079-3.9,6.24-18.2,6.24-18.2l5.98-5.069m-41.08,10.14,12.741-12.09m-8.319,19.5L119.83,137.7" transform="translate(-36.241 37.796)" fill="none" stroke="#000" stroke-linecap="round" stroke-linejoin="round" stroke-miterlimit="10" stroke-width="0.805"/>
    <path id="Caminho_111" data-name="Caminho 111" d="M117.318,135.368s-5.98-4.03-1.95-12.09" transform="translate(-26.839 45.068)" fill="none" stroke="#000" stroke-linecap="round" stroke-linejoin="round" stroke-miterlimit="10" stroke-width="0.805"/>
    <path id="Caminho_112" data-name="Caminho 112" d="M133.408,150.4l17.55-14.819,93.6-32.24-17.81-22.1-81.9,25.871a19.126,19.126,0,0,0-5.069,2.73l-24.7,20.149" transform="translate(-26.16 19.243)" fill="#ffc7de"/>
    <path id="Caminho_113" data-name="Caminho 113" d="M133.408,150.4l17.55-14.819,93.6-32.24-17.81-22.1-81.9,25.871a19.126,19.126,0,0,0-5.069,2.73l-24.7,20.149" transform="translate(-26.16 19.243)" fill="none" stroke="#000" stroke-linecap="round" stroke-linejoin="round" stroke-miterlimit="10" stroke-width="0.805"/>
    <path id="Caminho_114" data-name="Caminho 114" d="M292.669,262.317l-27.948-42.249-24.83,24.959,27.169,40.82,25.609-23.53Z" transform="translate(50.525 104.536)" fill="#ffc7de" stroke="#000" stroke-miterlimit="10" stroke-width="0.805"/>
    <path id="Caminho_115" data-name="Caminho 115" d="M256.865,262.159l-9.88,27.429a5.491,5.491,0,0,0,.651,5.46l.52.651a1.426,1.426,0,0,0,1.95.26l46.8-34.97a1.7,1.7,0,0,0,.26-2.47l-11.829-15.34Z" transform="translate(54.61 118.735)" fill="#0097e0" stroke="#000" stroke-miterlimit="10" stroke-width="0.805"/>
    <path id="Caminho_116" data-name="Caminho 116" d="M247.217,289.407l49.139-37.049" transform="translate(55.026 124.375)" fill="none" stroke="#000" stroke-miterlimit="10" stroke-width="0.403"/>
    <path id="Caminho_117" data-name="Caminho 117" d="M232.32,171.954l47.32,68.638a17.253,17.253,0,0,0,22.879.26l42.509-35.619L321.24,174.684l-29.121,23.659-23.268-43.419-36.531,17.03Z" transform="translate(45.874 64.512)" fill="#feba0c" stroke="#000" stroke-linecap="round" stroke-linejoin="round" stroke-miterlimit="10" stroke-width="0.805"/>
    <path id="Caminho_118" data-name="Caminho 118" d="M263.609,160.158v74.1L298.188,286l-35.619,23.53s-37.051-55.769-38.219-60.71V167.957l39.259-7.8Z" transform="translate(40.977 67.728)" fill="#feba0c" stroke="#000" stroke-linecap="round" stroke-linejoin="round" stroke-miterlimit="10" stroke-width="0.805"/>
    <path id="Caminho_119" data-name="Caminho 119" d="M105.622,153.958l-23.4,57.72,2.859,1.169a9.879,9.879,0,0,0,9.1-1.04l24.179-16.64.52-12.09a21.309,21.309,0,0,1,8.061-15.729l4.03-3.25-25.349-10.14Z" transform="translate(-46.346 63.918)" fill="#0097e0" stroke="#000" stroke-linecap="round" stroke-linejoin="round" stroke-miterlimit="10" stroke-width="0.805"/>
    <path id="Caminho_120" data-name="Caminho 120" d="M107.313,154.683,83.914,212.4" transform="translate(-45.307 64.364)" fill="none" stroke="#000" stroke-linecap="round" stroke-linejoin="round" stroke-miterlimit="10" stroke-width="0.805"/>
    <path id="Caminho_121" data-name="Caminho 121" d="M116.221,160.792l-21.84,10.4,6.5-16.509Z" transform="translate(-38.876 64.364)" fill="#fff" stroke="#000" stroke-linecap="round" stroke-linejoin="round" stroke-miterlimit="10" stroke-width="0.805"/>
    <path id="Caminho_122" data-name="Caminho 122" d="M104.633,191.308l33.279,13.521,12.61-31.071-33.279-13.519-4.94,3.64a19.153,19.153,0,0,0-7.93,16.249l.26,11.18Z" transform="translate(-32.747 67.777)" fill="#ffc7de" stroke="#000" stroke-linecap="round" stroke-linejoin="round" stroke-miterlimit="10" stroke-width="0.805"/>
    <path id="Caminho_123" data-name="Caminho 123" d="M226.057,150.842l-15.209,73.839a22.371,22.371,0,0,1-28.73,15.209l-77.348-27.04,15.079-39.259,53.3,20.538,10.269-54.988Z" transform="translate(-32.493 54.815)" fill="#feba0c" stroke="#000" stroke-linecap="round" stroke-linejoin="round" stroke-miterlimit="10" stroke-width="0.805"/>
    <path id="Caminho_124" data-name="Caminho 124" d="M91.728,186.928,96.8,249.066l2.99-.26a9.526,9.526,0,0,0,7.67-4.94l14.17-25.738-5.069-10.92a21.012,21.012,0,0,1,.129-17.679l2.081-4.811-27.041,2.21Z" transform="translate(-40.508 82.817)" fill="#0097e0" stroke="#000" stroke-linecap="round" stroke-linejoin="round" stroke-miterlimit="10" stroke-width="0.805"/>
    <path id="Caminho_125" data-name="Caminho 125" d="M93.66,185.926l5.069,62.138" transform="translate(-39.319 83.559)" fill="none" stroke="#000" stroke-linecap="round" stroke-linejoin="round" stroke-miterlimit="10" stroke-width="0.805"/>
    <path id="Caminho_126" data-name="Caminho 126" d="M110.04,185.121,95.22,204.1l-1.56-17.679Z" transform="translate(-39.319 83.065)" fill="#fff" stroke="#000" stroke-linecap="round" stroke-linejoin="round" stroke-miterlimit="10" stroke-width="0.805"/>
    <path id="Caminho_127" data-name="Caminho 127" d="M113.128,219.184l35.749-2.99-2.73-33.408-35.749,2.99-2.73,5.46a19.585,19.585,0,0,0,.26,18.2l5.2,9.749Z" transform="translate(-32.011 81.63)" fill="#ffc7de" stroke="#000" stroke-linecap="round" stroke-linejoin="round" stroke-miterlimit="10" stroke-width="0.805"/>
    <path id="Caminho_128" data-name="Caminho 128" d="M214.164,143.731l2.47,68.9a25.044,25.044,0,0,1-21.709,25.74l-79.95,11.049-4.809-40.559,63.18-7.8-2.081-57.069,42.9-.262Z" transform="translate(-29.178 57.635)" fill="#feba0c" stroke="#000" stroke-linecap="round" stroke-linejoin="round" stroke-miterlimit="10" stroke-width="0.805"/>
    <path id="Caminho_129" data-name="Caminho 129" d="M303.88,127.255l6.63-10.92s6.5-10.92,8.97-16.251c2.079-4.419-2.21-5.329-3.38-4.289,0,0,2.47-4.16-.129-6.24a3.974,3.974,0,0,0-5.591.911,3.2,3.2,0,0,0-1.689-4.16c-2.081-1.04-4.16.129-5.331,1.95-2.47,3.51-8.319,12.479-8.319,12.479s-.781-4.68-1.041-7.41c-.649-4.42-6.109-5.069-6.369.391-.131,4.289-.52,14.3-.52,14.3l-3.9,5.851,20.669,13.39Z" transform="translate(77.141 22.113)" fill="#ffc7de" stroke="#000" stroke-linecap="round" stroke-linejoin="round" stroke-miterlimit="10" stroke-width="0.805"/>
    <path id="Caminho_130" data-name="Caminho 130" d="M311.547,94.143,303.487,107.4m2.473-18.59-8.19,13m-7.152-2.6s6.11,1.95,4.549,9.88" transform="translate(81.693 23.894)" fill="none" stroke="#000" stroke-linecap="round" stroke-linejoin="round" stroke-miterlimit="10" stroke-width="0.805"/>
    <path id="Caminho_131" data-name="Caminho 131" d="M180.866,99.6a19.889,19.889,0,1,0-19.889-19.889A19.89,19.89,0,0,0,180.866,99.6Z" transform="translate(2.04 6.084)" fill="#ffc7de" stroke="#000" stroke-miterlimit="10" stroke-width="0.805"/>
    <path id="Caminho_132" data-name="Caminho 132" d="M172.975,61.294c-3.64,1.169-15.08,8.71-11.31,23.919a16.492,16.492,0,0,0,6.63,9.489c7.67-2.6,7.539-13.65,8.19-13.519,4.16.649,8.19-2.861,10.789-8.321a19.481,19.481,0,0,0,1.3-11.7c-2.341-.651-7.021-2.861-15.6.129Z" transform="translate(2.001 6.046)"/>
    <path id="Caminho_133" data-name="Caminho 133" d="M171.317,81.635a5.591,5.591,0,1,0-5.591-5.591,5.591,5.591,0,0,0,5.591,5.591Z" transform="translate(4.958 12.613)" fill="#ffc7de"/>
    <path id="Caminho_134" data-name="Caminho 134" d="M186.286,66.351s-7.281-1.3-10.011-3.639l2.341-2.081C178.485,60.631,184.336,63.1,186.286,66.351Z" transform="translate(11.44 6.578)"/>
    <path id="Caminho_135" data-name="Caminho 135" d="M167.5,73.434l4.549.781" transform="translate(6.047 14.444)" fill="none" stroke="#000" stroke-linecap="round" stroke-linejoin="round" stroke-miterlimit="10" stroke-width="0.805"/>
    <path id="Caminho_136" data-name="Caminho 136" d="M347.84,142.819l-22.619-14.04-21.06,32.63-42.769-20.149a26.8,26.8,0,0,1-12.35-12.219l-7.67-15.86,19.24-43.29L236.822,59.1,216.673,103.56a24.936,24.936,0,0,0-.78,18.85l12.35,34.319v84.109l66.168-6.37L287,183.508l14.82,6.5a16.9,16.9,0,0,0,21.06-6.5Z" transform="translate(34.87 5.638)" fill="#e53036" stroke="#000" stroke-linecap="round" stroke-linejoin="round" stroke-miterlimit="10" stroke-width="0.805"/>
    <path id="Caminho_137" data-name="Caminho 137" d="M262.6,102.826l33.019,11.829a10.584,10.584,0,1,1-12.09,16.251L262.6,102.826Z" transform="translate(64.477 32.503)"/>
    <path id="Caminho_138" data-name="Caminho 138" d="M204.579,440.843H427.526m-256.483,0H189.5M240.85,23.031l8.84,17.549M271.4,19,265.29,41.619M280.763,45l14.82-9.88" transform="translate(8.225 -19)" fill="none" stroke="#000" stroke-linecap="round" stroke-linejoin="round" stroke-miterlimit="10" stroke-width="0.805"/>
    <path id="Caminho_139" data-name="Caminho 139" d="M257.9,122.022a18.98,18.98,0,1,0-18.979-18.979A18.98,18.98,0,0,0,257.9,122.022Z" transform="translate(49.931 20.975)" fill="#ffc7de" stroke="#000" stroke-miterlimit="10" stroke-width="0.805"/>
    <path id="Caminho_140" data-name="Caminho 140" d="M263.9,87.828c2.99,1.949,11.961,11.44,5.071,24.829a15.342,15.342,0,0,1-8.19,7.279c-6.5-4.16-3.9-14.3-4.42-14.43-4.03-.26-7.019-4.551-8.059-10.14a18.409,18.409,0,0,1,1.429-11.049c2.081-.262,6.89-1.17,14.17,3.51Z" transform="translate(55.505 20.981)"/>
    <path id="Caminho_141" data-name="Caminho 141" d="M256.089,105.755a5.33,5.33,0,1,0-5.33-5.33,5.33,5.33,0,0,0,5.33,5.33Z" transform="translate(57.203 27.753)" fill="#ffc7de"/>
    <path id="Caminho_142" data-name="Caminho 142" d="M244,87.783s7.019.521,10.14-1.169l-1.69-2.47c0,.129-5.849,1.04-8.45,3.639Z" transform="translate(53.047 21.025)"/>
    <path id="Caminho_143" data-name="Caminho 143" d="M257.435,98.415l-4.419-.26" transform="translate(58.589 29.633)" fill="none" stroke="#000" stroke-linecap="round" stroke-linejoin="round" stroke-miterlimit="10" stroke-width="0.805"/>
    <path id="Caminho_144" data-name="Caminho 144" d="M288.748,174.178l-24.7,1.429-.131-2.99-39.648,1.69,61.228-6.5,3.25,6.37Z" transform="translate(40.928 72.428)"/>
    <path id="Caminho_145" data-name="Caminho 145" d="M142.22,141.078l16.51-3.639-21.84,52,74.488,19.24,5.069-88.269,29.9-8.97L235.429,77.38,176.41,94.02c-3.641,1.04-7.15,2.21-10.791,3.379l-33.149,11.7,9.749,31.978Z" transform="translate(-15.474 16.869)" fill="#e53036" stroke="#000" stroke-linecap="round" stroke-linejoin="round" stroke-miterlimit="10" stroke-width="0.805"/>
    <path id="Caminho_146" data-name="Caminho 146" d="M191.343,103.55,174.184,108.1l16.509,3.51Z" transform="translate(10.155 32.948)"/>
    <path id="Caminho_147" data-name="Caminho 147" d="M148.818,127.513l14.43-34.19" transform="translate(-5.43 26.664)" fill="none" stroke="#000" stroke-linecap="round" stroke-linejoin="round" stroke-miterlimit="10" stroke-width="0.805"/>
    <path id="Caminho_148" data-name="Caminho 148" d="M275.723,293.327l24.31-48.619" transform="translate(72.54 119.675)" fill="none" stroke="#dedfea" stroke-miterlimit="10" stroke-width="0.805"/>
    <path id="Caminho_149" data-name="Caminho 149" d="M149.381,150.254l.26,1.43,43.029,12.479,1.04,12.09,3.121-14.431-47.449-11.569Zm.26,16.9L146,196.923l5.46.129Z" transform="translate(-7.161 61.642)"/>
    <path id="Caminho_150" data-name="Caminho 150" d="M356.444,242.051,324.853,280.4m-98.412-11.57L241,289.5" transform="translate(42.262 118.043)" fill="none" stroke="#dedfea" stroke-miterlimit="10" stroke-width="0.805"/>
  </g>
</svg>
