<svg xmlns="http://www.w3.org/2000/svg" width="494.446" height="154.382" viewBox="0 0 494.446 154.382">
  <g id="menuxp-logo" transform="translate(-3015.056 -1143.5)">
    <path id="fundo" d="M4302.82,923.132c7.917-8.16,20.42-20.42,20.42-20.42s6.815-7.826,19.578-7.826H4766.1s22.806,4.811,22.806,24.48v84.321s-.1,9.513-6.9,16.32l-21.658,21.658a27.05,27.05,0,0,1-18.515,6.589c-11.086-.5-328.5-.63-423.695,0-14.01-.207-22.418-6.068-22.6-24.48s0-82.647,0-82.647a25.636,25.636,0,0,1,7.282-17.995Z" transform="translate(-1279.904 249.114)" stroke="#fff" stroke-width="1"/>
    <g id="texto" transform="translate(1214.041 -173.5)">
      <g id="XP" transform="translate(429 -109.673)">
        <path id="P" d="M36.982,98.347H0V0H74.192a14.518,14.518,0,0,1,3.046.483A13.08,13.08,0,0,1,83.11,3.739a13.444,13.444,0,0,1,3.638,8.837V66.843A13.113,13.113,0,0,1,73.634,79.956l-36.652-.343V98.346Zm-.165-85.738V67.078A12.623,12.623,0,0,0,49.425,54.469V12.609Z" transform="translate(1760.173 1445)" fill="#0097e0"/>
        <path id="X" d="M0,0H33.921L46.914,30.132,60.471,0h12.5V39.087L68.42,49.313,72.907,59.34V98.347H57.687L45.752,70.093,33.761,98.347H0V85.234L22.356,49.168Z" transform="translate(1682 1445)" fill="#f33a40"/>
      </g>
      <path id="menu" d="M-2297.46,1048.79h-238.8a17.015,17.015,0,0,1-8.056-2.043,21.079,21.079,0,0,1-6.578-5.572,29.514,29.514,0,0,1-6.062-18.385v-48a29.514,29.514,0,0,1,6.061-18.39,21.081,21.081,0,0,1,6.578-5.572,17.015,17.015,0,0,1,8.056-2.043h238.8v100Zm-65.615-76.126h0v31.671a40.837,40.837,0,0,0,1.012,9.922,12.018,12.018,0,0,0,3.524,6.156,14.877,14.877,0,0,0,6.844,3.159,53.841,53.841,0,0,0,10.975.931,54.444,54.444,0,0,0,11.016-.931,14.673,14.673,0,0,0,6.885-3.2,12.5,12.5,0,0,0,3.564-6.2,38.924,38.924,0,0,0,1.053-9.842V972.659h-16.2v33.7a5.824,5.824,0,0,1-.486,2.633,2.694,2.694,0,0,1-1.741,1.3,14.558,14.558,0,0,1-3.767.365h-6.48v-38Zm-37.26,27.135h.486a7.811,7.811,0,0,0,.486,2.47,20.227,20.227,0,0,0,1.539,3.28l11.016,17.739h16.038V972.659h-16.2v23.49h-.486a8.648,8.648,0,0,0-.446-2.551,13.977,13.977,0,0,0-1.58-3.2l-11.016-17.739h-16.038v50.625h16.2V999.795Zm-58.725-27.135h0v50.625h35.235v-13.365h-19.035v-6.075h16.2V992.1h-16.2v-6.075h17.415l2.025-13.365Zm-24.867,26.082h.567l1.3,24.543h16.119l-3.078-50.625h-20.331l-6.318,25.758h-.567l-6.318-25.758h-20.331l-3.078,50.625h16.119l1.3-24.543h.486l5.913,24.543h12.393l5.832-24.542Z" transform="translate(4397.957 385.216)" fill="#feba0c"/>
    </g>
  </g>
</svg>
