<svg xmlns="http://www.w3.org/2000/svg" width="493.449" height="153.393" viewBox="0 0 493.449 153.393">
  <g id="menuxp-logo-white" transform="translate(-3015.538 -1143.669)">
    <g id="fundo" transform="translate(-1279.917 248.784)" fill="none">
      <path d="M4302.824,923.132c7.917-8.16,20.42-20.42,20.42-20.42s6.815-7.826,19.578-7.826H4766.1s22.806,4.811,22.806,24.48v84.321s-.1,9.513-6.9,16.32l-21.658,21.658a27.052,27.052,0,0,1-18.515,6.589c-11.086-.5-328.5-.63-423.695,0-14.01-.207-22.418-6.068-22.6-24.48s0-82.647,0-82.647A25.634,25.634,0,0,1,4302.824,923.132Z" stroke="none"/>
      <path d="M 4342.82177734375 898.8857421875 C 4340.3740234375 898.8857421875 4337.98828125 899.2200927734375 4335.7314453125 899.8795166015625 C 4333.91845703125 900.4090576171875 4332.177734375 901.14990234375 4330.55712890625 902.08154296875 C 4327.873046875 903.624755859375 4326.38720703125 905.20166015625 4326.2509765625 905.3494873046875 L 4326.177734375 905.43701171875 L 4326.0439453125 905.5679931640625 C 4325.91943359375 905.690185546875 4313.48486328125 917.88720703125 4305.69482421875 925.9172973632812 C 4302.98681640625 928.7083740234375 4301.12744140625 932.049072265625 4300.16796875 935.8467407226562 C 4299.46240234375 938.6395263671875 4299.52099609375 940.6940307617188 4299.52783203125 940.8829345703125 L 4299.53564453125 940.9776000976562 L 4299.53515625 941.1370849609375 C 4299.533203125 941.7792358398438 4299.35791015625 1005.5576171875 4299.53515625 1023.733764648438 C 4299.57470703125 1027.823974609375 4300.05810546875 1031.307373046875 4300.9716796875 1034.08740234375 C 4301.7841796875 1036.561157226562 4302.92041015625 1038.48876953125 4304.44482421875 1039.980590820312 C 4305.87841796875 1041.383544921875 4307.66748046875 1042.408203125 4309.91357421875 1043.113037109375 C 4312.1943359375 1043.82861328125 4314.88818359375 1044.201416015625 4318.1474609375 1044.252685546875 C 4358.53759765625 1043.985595703125 4443.75927734375 1043.826293945312 4546.1337890625 1043.826293945312 C 4638.763671875 1043.826293945312 4735.78955078125 1043.974243164062 4742.0087890625 1044.256958007812 C 4742.322265625 1044.271240234375 4742.64013671875 1044.278442382812 4742.955078125 1044.278442382812 C 4746.53466796875 1044.278442382812 4750.06201171875 1043.368896484375 4753.439453125 1041.575439453125 C 4755.8603515625 1040.289794921875 4757.353515625 1038.974731445312 4757.56787109375 1038.78076171875 L 4779.1708984375 1017.178161621094 C 4781.4443359375 1014.904907226562 4783.09716796875 1011.973510742188 4784.08349609375 1008.465454101562 C 4784.818359375 1005.852905273438 4784.89794921875 1003.84765625 4784.904296875 1003.643981933594 L 4784.904296875 919.3658447265625 C 4784.904296875 917.444580078125 4784.64111328125 915.60888671875 4784.12158203125 913.9097900390625 C 4783.654296875 912.380126953125 4782.96484375 910.91455078125 4782.0732421875 909.5537109375 C 4780.5205078125 907.184326171875 4778.31689453125 905.0582275390625 4775.5234375 903.234619140625 C 4771.2685546875 900.456787109375 4766.8955078125 899.208984375 4765.626953125 898.8857421875 L 4342.82177734375 898.8857421875 M 4342.82177734375 894.8857421875 C 4355.58447265625 894.8857421875 4766.09814453125 894.8857421875 4766.09814453125 894.8857421875 C 4766.09814453125 894.8857421875 4788.904296875 899.6968994140625 4788.904296875 919.3658447265625 C 4788.904296875 939.0347900390625 4788.904296875 1003.686401367188 4788.904296875 1003.686401367188 C 4788.904296875 1003.686401367188 4788.806640625 1013.199340820312 4781.99951171875 1020.006591796875 C 4775.1923828125 1026.813720703125 4760.341796875 1041.6640625 4760.341796875 1041.6640625 C 4760.341796875 1041.6640625 4753.4130859375 1048.278442382812 4742.955078125 1048.278442382812 C 4742.58251953125 1048.278442382812 4742.2080078125 1048.270141601562 4741.8271484375 1048.252807617188 C 4730.7412109375 1047.748901367188 4413.32373046875 1047.622802734375 4318.13232421875 1048.252807617188 C 4304.1220703125 1048.045654296875 4295.71435546875 1042.184326171875 4295.53515625 1023.772705078125 C 4295.35595703125 1005.361083984375 4295.53515625 941.1259765625 4295.53515625 941.1259765625 C 4295.53515625 941.1259765625 4294.9072265625 931.2921142578125 4302.82373046875 923.1320190429688 C 4310.740234375 914.971923828125 4323.24365234375 902.7119140625 4323.24365234375 902.7119140625 C 4323.24365234375 902.7119140625 4330.05908203125 894.8857421875 4342.82177734375 894.8857421875 Z" stroke="none" fill="#fff"/>
    </g>
    <g id="texto" transform="translate(1214.041 -173.5)">
      <g id="XP" transform="translate(429 -109.673)">
        <path id="P" d="M36.982,98.347H0V0H74.192a14.518,14.518,0,0,1,3.046.483,13.08,13.08,0,0,1,5.872,3.256,13.444,13.444,0,0,1,3.638,8.837V66.843A13.113,13.113,0,0,1,73.634,79.956l-36.652-.343V98.346Zm-.165-85.738V67.078A12.623,12.623,0,0,0,49.425,54.469V12.609Z" transform="translate(1760.173 1445)" fill="#fff"/>
        <path id="X" d="M0,0H33.921L46.914,30.132,60.471,0h12.5V39.087L68.42,49.313,72.907,59.34V98.347H57.687L45.752,70.093,33.761,98.347H0V85.234L22.356,49.168Z" transform="translate(1682 1445)" fill="#fff"/>
      </g>
      <path id="menu" d="M-2297.457,1048.785h-238.805a17.016,17.016,0,0,1-8.056-2.043,21.078,21.078,0,0,1-6.578-5.572,29.515,29.515,0,0,1-6.062-18.385v-48A29.515,29.515,0,0,1-2550.9,956.4a21.079,21.079,0,0,1,6.578-5.572,17.017,17.017,0,0,1,8.056-2.043h238.805v100Zm-65.615-76.126h0v31.671a40.833,40.833,0,0,0,1.012,9.922,12.018,12.018,0,0,0,3.524,6.156,14.874,14.874,0,0,0,6.844,3.159,53.843,53.843,0,0,0,10.975.931,54.46,54.46,0,0,0,11.016-.931,14.671,14.671,0,0,0,6.885-3.2,12.5,12.5,0,0,0,3.564-6.2,38.933,38.933,0,0,0,1.053-9.842V972.659h-16.2v33.7a5.818,5.818,0,0,1-.486,2.633,2.694,2.694,0,0,1-1.741,1.3,14.553,14.553,0,0,1-3.767.365h-6.48V972.659Zm-37.26,27.135h.486a7.82,7.82,0,0,0,.486,2.47,20.229,20.229,0,0,0,1.539,3.28l11.016,17.739h16.038V972.659h-16.2v23.49h-.486a8.654,8.654,0,0,0-.446-2.551,13.974,13.974,0,0,0-1.58-3.2l-11.016-17.739h-16.038v50.625h16.2V999.795Zm-58.725-27.135h0v50.625h35.235v-13.365h-19.035v-6.075h16.2V992.1h-16.2v-6.075h17.415l2.025-13.365Zm-24.867,26.082h.567l1.3,24.543h16.119l-3.078-50.625h-20.331l-6.318,25.758h-.567l-6.318-25.758h-20.331l-3.078,50.625h16.119l1.3-24.543h.486l5.913,24.543h12.393l5.832-24.542Z" transform="translate(4397.957 385.216)" fill="#fff"/>
    </g>
  </g>
</svg>
