<svg xmlns="http://www.w3.org/2000/svg" width="134.179" height="74.214" viewBox="0 0 134.179 74.214">
  <g id="mult-idiomas" transform="translate(1871.554 -4117.946)">
    <g id="Grupo_2863" data-name="Grupo 2863" transform="translate(-1871 4146.892)">
      <path id="Caminho_2121" data-name="Caminho 2121" d="M30.344,190.355a15.532,15.532,0,0,1,12.421-6.019h68.218a15.764,15.764,0,0,1,0,31.529h-5.351V229.05L91.778,215.865H42.764A15.78,15.78,0,0,1,27,200.1,15.62,15.62,0,0,1,30.344,190.355Z" transform="translate(-27 -184.336)" fill="#feba0c" stroke="#000" stroke-linecap="round" stroke-linejoin="round" stroke-miterlimit="10" stroke-width="1.108"/>
      <path id="Caminho_2122" data-name="Caminho 2122" d="M43.842,204.564s16.146-3.917,9.936-7.835-8.025,7.835,10.605,7.835c5.542,0,4.2-3.535,14.045-1.815,15.382,2.675,14.713-3.822,21.879-1.147a62.7,62.7,0,0,0,13.568,3.535" transform="translate(-29.321 -185.934)" fill="none" stroke="#000" stroke-miterlimit="10" stroke-width="1.108"/>
    </g>
    <g id="Grupo_2866" data-name="Grupo 2866" transform="translate(-1837.675 4118.5)">
      <path id="Caminho_2123" data-name="Caminho 2123" d="M96.4,38.695a15.531,15.531,0,0,1-12.421,6.019H15.765a15.764,15.764,0,1,1,0-31.529h5.35V0L34.969,13.185H83.982A15.792,15.792,0,0,1,96.4,38.695Z" transform="translate(99.747 44.714) rotate(180)" fill="#e53036" stroke="#000" stroke-linecap="round" stroke-linejoin="round" stroke-miterlimit="10" stroke-width="1.108"/>
      <text id="ぁ" transform="translate(47.675 19.5)" fill="#fff" font-size="18" font-family="YuGothicUI-Regular, Yu Gothic UI"><tspan x="-6.201" y="0">ぁ</tspan></text>
    </g>
  </g>
</svg>
